<svg width="586" height="623" viewBox="0 0 586 623" fill="none" xmlns="http://www.w3.org/2000/svg">
<path d="M585.493 312.277C585.493 399.767 563.713 484.957 522.493 558.637C513.359 574.989 503.251 590.777 492.223 605.917C486.45 613.855 477.945 619.377 468.344 621.419C458.743 623.461 448.727 621.878 440.223 616.977L439.693 616.667C434.862 613.867 430.676 610.081 427.406 605.556C424.136 601.031 421.856 595.867 420.714 590.402C419.573 584.937 419.595 579.292 420.78 573.837C421.966 568.381 424.287 563.236 427.593 558.737C436.718 546.199 445.083 533.125 452.643 519.587C487.193 457.807 505.453 386.127 505.453 312.277C505.453 240.277 488.043 170.127 455.083 109.397C446.431 93.4219 436.663 78.0772 425.853 63.4766C422.546 58.98 420.227 53.8356 419.046 48.3803C417.865 42.925 417.851 37.2818 419.002 31.8204C420.154 26.3589 422.447 21.2024 425.73 16.6884C429.012 12.1744 433.212 8.40487 438.053 5.62655L438.583 5.31655C447.034 0.440268 456.984 -1.15497 466.536 0.835051C476.087 2.82507 484.573 8.26113 490.373 16.1066C503.333 33.6473 515.052 52.0722 525.443 71.2466C564.733 143.657 585.493 226.997 585.493 312.277Z" fill="#E2514C"/>
<path d="M418.083 313.356C418.083 367.546 404.563 420.357 378.993 466.087C370.188 481.856 359.923 496.765 348.333 510.617C342.331 517.733 334.014 522.509 324.842 524.107C315.67 525.706 306.229 524.024 298.173 519.357L297.633 519.047C292.615 516.143 288.292 512.176 284.97 507.424C281.648 502.672 279.407 497.251 278.403 491.541C277.4 485.83 277.659 479.969 279.162 474.37C280.664 468.77 283.375 463.567 287.103 459.127C295.447 449.13 302.836 438.373 309.173 426.997C328.083 393.177 338.083 353.867 338.083 313.317C338.083 273.787 328.543 235.317 310.503 202.067C303.288 188.71 294.629 176.185 284.683 164.717C268.193 145.777 272.803 116.577 294.553 104.017L295.123 103.687C303.088 99.0975 312.4 97.4172 321.467 98.9329C330.534 100.449 338.793 105.066 344.833 111.997C391.153 164.997 418.083 236.806 418.083 313.356Z" fill="#E2514C"/>
<path d="M176.663 443.316C166.75 443.323 157.004 440.763 148.373 435.887L147.853 435.586L34.683 370.246C24.1379 364.158 15.3813 355.401 9.29323 344.855C3.20512 334.31 0 322.348 0 310.171C0 297.995 3.20512 286.033 9.29323 275.488C15.3813 264.942 24.1379 256.185 34.683 250.096L147.913 184.726C149.773 183.656 151.693 182.666 153.613 181.776C168.503 174.886 184.613 174.776 198.903 181.346C219.313 190.766 234.063 212.576 244.003 248.036C259.003 301.496 253.463 359.316 228.473 410.846C223.758 420.578 216.398 428.786 207.235 434.528C198.072 440.271 187.477 443.316 176.663 443.316ZM70.663 310.176L170.843 367.996C183.493 335.386 185.653 299.226 176.593 266.896C175.218 261.79 173.511 256.78 171.483 251.896L70.663 310.176Z" fill="#E2514C"/>
</svg>
