<svg width="22" height="22" viewBox="0 0 27 29" fill="none" xmlns="http://www.w3.org/2000/svg">
<path d="M0.375 3.04167C0.375 1.77601 1.40101 0.75 2.66667 0.75H24.3333C25.599 0.75 26.625 1.77601 26.625 3.04167C26.625 4.30732 25.599 5.33333 24.3333 5.33333H2.66667C1.40101 5.33333 0.375 4.30732 0.375 3.04167ZM0.375 14.5C0.375 13.2343 1.40101 12.2083 2.66667 12.2083H24.3333C25.599 12.2083 26.625 13.2343 26.625 14.5C26.625 15.7657 25.599 16.7917 24.3333 16.7917H2.66667C1.40101 16.7917 0.375 15.7657 0.375 14.5ZM0.375 25.9583C0.375 24.6927 1.40101 23.6667 2.66667 23.6667H24.3333C25.599 23.6667 26.625 24.6927 26.625 25.9583C26.625 27.224 25.599 28.25 24.3333 28.25H2.66667C1.40101 28.25 0.375 27.224 0.375 25.9583Z" fill=" #273f48" fill-opacity="1"/>
</svg>
