<svg width="101" height="50" viewBox="0 0 101 50" fill="none" xmlns="http://www.w3.org/2000/svg">
<path d="M39.9821 12.9442C39.9821 11.7868 40.9195 10.8494 42.0769 10.8494C43.2344 10.8494 44.1718 11.7868 44.1718 12.9442V37.0721C44.1718 38.2295 43.2344 39.1669 42.0769 39.1669C40.9195 39.1669 39.9821 38.2295 39.9821 37.0721V12.9442ZM60.181 12.9442C60.181 11.7868 59.2436 10.8494 58.0861 10.8494C56.9286 10.8494 55.9912 11.7868 55.9912 12.9442V37.0721C55.9912 38.2295 56.9286 39.1669 58.0861 39.1669C59.2436 39.1669 60.181 38.2295 60.181 37.0721V12.9442ZM100.163 7.71112C100.163 6.55364 99.2338 5.62439 98.1008 5.62439C96.9596 5.62439 96.0385 6.55364 96.0385 7.71112V42.297C96.0385 43.4545 96.9677 44.3838 98.1008 44.3838C99.2419 44.3838 100.163 43.4545 100.163 42.297V7.71112ZM92.1992 2.09488C92.1992 0.937398 91.2618 0 90.1043 0C88.9469 0 88.0095 0.937398 88.0095 2.09488V47.9051C88.0095 49.0626 88.9469 50 90.1043 50C91.2618 50 92.1992 49.0626 92.1992 47.9051V2.09488ZM68.1855 17.6557C68.1855 16.4982 67.2481 15.5608 66.0906 15.5608C64.9332 15.5608 63.9958 16.4982 63.9958 17.6557V32.3443C63.9958 33.5018 64.9332 34.4392 66.0906 34.4392C67.2481 34.4392 68.1855 33.5018 68.1855 32.3443V17.6557ZM76.1819 12.9442C76.1819 11.7868 75.2445 10.8494 74.0871 10.8494C72.9296 10.8494 71.9922 11.7868 71.9922 12.9442V37.0721C71.9922 38.2295 72.9296 39.1669 74.0871 39.1669C75.2445 39.1669 76.1819 38.2295 76.1819 37.0721V12.9442ZM84.162 7.71112C84.162 6.55364 83.2328 5.62439 82.0998 5.62439C80.9586 5.62439 80.0375 6.55364 80.0375 7.71112V42.297C80.0375 43.4545 80.9667 44.3838 82.0998 44.3838C83.241 44.3838 84.162 43.4545 84.162 42.297V7.71112ZM0 7.71112C0 6.56179 0.929247 5.62439 2.06228 5.62439C3.20346 5.62439 4.12455 6.55364 4.12455 7.71112V42.297C4.12455 43.4545 3.1953 44.3838 2.06228 44.3838C0.921096 44.3838 0 43.4464 0 42.297V7.71112ZM7.97196 2.09488C7.97196 0.937398 8.90936 0 10.0668 0C11.2243 0 12.1617 0.937398 12.1617 2.09488V47.9051C12.1617 49.0626 11.2243 50 10.0668 50C8.90936 50 7.97196 49.0626 7.97196 47.9051V2.09488ZM31.9775 17.6557C31.9775 16.4982 32.9149 15.5608 34.0724 15.5608C35.2299 15.5608 36.1673 16.4982 36.1673 17.6557V32.3443C36.1673 33.5018 35.2299 34.4392 34.0724 34.4392C32.9149 34.4392 31.9775 33.5018 31.9775 32.3443V17.6557ZM23.9811 12.9442C23.9811 11.7868 24.9185 10.8494 26.076 10.8494C27.2335 10.8494 28.1709 11.7868 28.1709 12.9442V37.0721C28.1709 38.2295 27.2335 39.1669 26.076 39.1669C24.9185 39.1669 23.9811 38.2295 23.9811 37.0721V12.9442ZM16.001 7.71112C16.001 6.55364 16.9302 5.62439 18.0633 5.62439C19.2044 5.62439 20.1255 6.55364 20.1255 7.71112V42.297C20.1255 43.4545 19.1963 44.3838 18.0633 44.3838C16.9221 44.3838 16.001 43.4545 16.001 42.297V7.71112ZM48.0111 7.71112C48.0111 6.55364 48.9403 5.62439 50.0734 5.62439C51.2145 5.62439 52.1356 6.55364 52.1356 7.71112V42.297C52.1356 43.4545 51.2064 44.3838 50.0734 44.3838C48.9322 44.3838 48.0111 43.4545 48.0111 42.297V7.71112Z" fill="white"/>
</svg>
