<svg width="35" height="50" viewBox="0 0 35 50" fill="none" xmlns="http://www.w3.org/2000/svg">
<path d="M34.8308 23.2381C34.8308 21.932 33.7728 20.8781 32.4707 20.8781C31.1646 20.8781 30.1107 21.936 30.1107 23.2381C30.1107 27.889 28.9958 31.7301 26.7375 34.2936C24.6908 36.613 21.5984 37.9517 17.4195 37.9517C13.2406 37.9517 10.1482 36.617 8.10144 34.2977C5.83907 31.7342 4.72823 27.8931 4.72823 23.2381C4.72823 21.932 3.67029 20.8781 2.3682 20.8781C1.06205 20.8781 0.00817871 21.936 0.00817871 23.2381C0.00817871 29.0365 1.50964 33.9518 4.5614 37.4146C6.8075 39.9618 9.83484 41.687 13.6475 42.3584V46.2321H7.86137C6.82784 46.2321 5.98149 47.0785 5.98149 48.112V49.9959H28.8656V48.112C28.8656 47.0785 28.0192 46.2321 26.9857 46.2321H21.1874V42.3584C25 41.6829 28.0233 39.9618 30.2735 37.4105C33.3252 33.9518 34.8308 29.0365 34.8308 23.2381ZM17.4154 0C22.2331 0 26.1719 3.94287 26.1719 8.75651V8.98438H21.4641V14.563H26.176V17.4032H21.4641V22.9818H26.176V24.9878C26.176 29.8055 22.2331 33.7443 17.4195 33.7443C12.6018 33.7443 8.66296 29.8014 8.66296 24.9878V22.9818H13.3749V17.4032H8.6589V14.563H13.3708V8.98438H8.6589V8.75651C8.6589 3.94287 12.5977 0 17.4154 0Z" fill="white"/>
</svg>
