<svg width="52" height="50" viewBox="0 0 52 50" fill="none" xmlns="http://www.w3.org/2000/svg">
<path fill-rule="evenodd" clip-rule="evenodd" d="M28.6692 28.9833V49.9993H22.4416V28.9833C20.3959 27.8796 19.0062 25.7215 19.0062 23.2393C19.0062 19.6347 21.9387 16.7117 25.5554 16.7117C29.1717 16.7117 32.1046 19.6347 32.1046 23.2393C32.1046 25.7215 30.7149 27.8796 28.6692 28.9833ZM16.3549 4.62881C17.5678 4.0326 18.0649 2.56862 17.4668 1.36087C16.8686 0.152706 15.4011 -0.343579 14.1891 0.252212C9.23921 2.68596 5.38956 6.71221 2.95706 11.4532C1.16014 14.9546 0.13565 18.8507 0.0121123 22.7824C-0.112258 26.7473 0.67223 30.7524 2.4966 34.4387C4.74317 38.9799 8.55205 43.019 14.1595 45.8785C15.3612 46.4909 16.8337 46.0153 17.4476 44.8175C18.062 43.6197 17.5853 42.1524 16.3836 41.5405C11.7927 39.2 8.69431 35.9329 6.88616 32.2806C5.42783 29.3324 4.80057 26.1208 4.9004 22.9358C5.00147 19.7197 5.83879 16.5334 7.30877 13.6702C9.27706 9.83462 12.3784 6.58327 16.3549 4.62881ZM36.9217 0.251797C35.7097 -0.344408 34.2418 0.152292 33.6436 1.36046C33.0455 2.56862 33.543 4.0326 34.7559 4.62839C38.7328 6.58327 41.8342 9.8342 43.8016 13.6702C45.2712 16.533 46.1089 19.7193 46.2096 22.9358C46.3094 26.1208 45.6821 29.3324 44.2242 32.2806C42.4161 35.9329 39.3176 39.2 34.7268 41.5405C33.5251 42.1529 33.0488 43.6202 33.6627 44.8175C34.2767 46.0153 35.7492 46.4905 36.9509 45.8785C42.5579 43.0194 46.3672 38.9799 48.6138 34.4387C50.4382 30.7524 51.2226 26.7473 51.0983 22.7824C50.9747 18.8507 49.9502 14.9546 48.1537 11.4532C45.7208 6.71221 41.8716 2.68596 36.9217 0.251797ZM34.4368 10.9889C33.5238 10.3334 32.2506 10.5403 31.593 11.4503C30.9358 12.3604 31.1429 13.6295 32.0559 14.285C32.424 14.5491 32.7851 14.8456 33.1391 15.1698C35.2068 17.0699 36.433 19.6036 36.6905 22.2845C36.9509 24.9893 36.2283 27.8555 34.3952 30.3909C34.0841 30.8216 33.7256 31.2582 33.32 31.6969C32.5567 32.5228 32.6096 33.8105 33.4394 34.5709C34.2688 35.3313 35.5603 35.2778 36.3232 34.4519C36.814 33.9217 37.2741 33.357 37.7021 32.7637C40.1404 29.3892 41.0987 25.5495 40.7477 21.9022C40.395 18.2317 38.7216 14.7676 35.9027 12.1767C35.4593 11.7692 34.9705 11.3728 34.4368 10.9889ZM19.0545 14.2863C19.9675 13.6308 20.175 12.3617 19.5174 11.4516C18.8598 10.5415 17.5866 10.3346 16.6735 10.9897C16.1395 11.3736 15.6511 11.77 15.2077 12.1772C12.3884 14.7684 10.715 18.2321 10.3623 21.9026C10.0112 25.5495 10.9696 29.3904 13.4083 32.7649C13.8372 33.3578 14.2968 33.9221 14.7872 34.4524C15.5501 35.2782 16.8416 35.3317 17.6706 34.5713C18.5008 33.811 18.5537 32.5236 17.7904 31.6973C17.3848 31.2582 17.0263 30.8221 16.7151 30.3913C14.8824 27.8559 14.1595 24.9902 14.4199 22.2853C14.6774 19.6048 15.9036 17.0708 17.9713 15.1706C18.3257 14.8468 18.6868 14.5504 19.0545 14.2863Z" fill="white"/>
</svg>
