<svg width="115" height="115" viewBox="0 0 115 115" fill="none" xmlns="http://www.w3.org/2000/svg">
<path opacity="0.3" fill-rule="evenodd" clip-rule="evenodd" d="M13.8778 94.1735C14.9547 95.4585 16.0971 96.7072 17.3051 97.9152C18.5131 99.1232 19.7618 100.266 21.0468 101.342L13.8778 94.1735ZM30.0515 107.522L7.69823 85.1687C6.66048 83.2914 5.73668 81.3679 4.92683 79.4084L35.8119 110.293C33.8524 109.484 31.9289 108.56 30.0515 107.522ZM40.2621 111.918C41.6288 112.354 43.0087 112.736 44.3986 113.066L2.1542 70.8217C2.48392 72.2116 2.86645 73.5915 3.30179 74.9582L40.2621 111.918ZM1.43042 67.2727L47.9475 113.79C49.1013 113.987 50.26 114.149 51.4218 114.275L0.945067 63.7985C1.07121 64.9603 1.233 66.119 1.43042 67.2727ZM0.694709 60.723L54.4973 114.526C55.521 114.581 56.5459 114.609 57.5707 114.61L0.610187 57.6495C0.610891 58.6744 0.639066 59.6993 0.694709 60.723ZM0.674761 54.889L60.3313 114.546C61.2619 114.501 62.1916 114.434 63.1196 114.345L0.875435 52.1007C0.785855 53.0286 0.718963 53.9584 0.674761 54.889ZM1.17587 49.576L65.6443 114.044C66.5021 113.923 67.3576 113.782 68.2102 113.621L1.59887 47.0101C1.43831 47.8627 1.29731 48.7182 1.17587 49.576ZM2.08927 44.6753L70.545 113.131C71.3424 112.946 72.1365 112.744 72.9269 112.524L2.69623 42.2934C2.47656 43.0837 2.27424 43.8779 2.08927 44.6753ZM3.34743 40.1194L75.1009 111.873C75.8461 111.633 76.5873 111.378 77.3241 111.107L4.11318 37.8962C3.84221 38.633 3.58696 39.3742 3.34743 40.1194ZM4.90554 35.8634L79.3569 110.315C80.0555 110.027 80.7495 109.724 81.4386 109.408L5.81275 33.7817C5.49587 34.4707 5.19347 35.1648 4.90554 35.8634ZM6.73256 31.8763L83.3439 108.488C84 108.156 84.6509 107.81 85.2964 107.451L7.76898 29.9239C7.41 30.5693 7.06453 31.2203 6.73256 31.8763ZM8.80642 28.1361L87.0841 106.414C87.7005 106.041 88.3113 105.655 88.9162 105.257L9.96326 26.3041C9.56492 26.909 9.17931 27.5198 8.80642 28.1361ZM11.1113 24.6269L90.5933 104.109C91.1721 103.697 91.7448 103.274 92.3113 102.838L12.3822 22.909C11.9465 23.4755 11.5228 24.0482 11.1113 24.6269ZM13.6358 21.3374L93.8829 101.584C94.4254 101.136 94.9616 100.676 95.4912 100.204L15.0164 19.7291C14.5447 20.2586 14.0844 20.7949 13.6358 21.3374ZM16.3721 18.2596L96.9606 98.8481C97.2816 98.5416 97.5998 98.2306 97.9153 97.9152C98.0991 97.7313 98.2814 97.5466 98.4622 97.3608L17.8594 16.758C17.6737 16.9388 17.4889 17.1212 17.3051 17.305C16.9896 17.6205 16.6786 17.9387 16.3721 18.2596ZM19.3153 15.3888L99.8315 95.905C100.308 95.3804 100.773 94.849 101.227 94.3112L20.909 13.9936C20.3713 14.4471 19.8399 14.9122 19.3153 15.3888ZM22.4666 12.726L102.494 92.7537C102.935 92.1923 103.364 91.6245 103.78 91.0508L24.1695 11.44C23.5957 11.8566 23.028 12.2853 22.4666 12.726ZM25.8321 10.2774L104.943 89.3882C105.346 88.7886 105.737 88.183 106.115 87.5718L27.6485 9.10481C27.0373 9.48305 26.4317 9.87393 25.8321 10.2774ZM29.4209 8.05206L107.168 85.7994C107.533 85.1596 107.884 84.5142 108.221 83.8637L31.3566 6.9989C30.7061 7.33657 30.0607 7.68762 29.4209 8.05206ZM33.2456 6.06269L109.158 81.9747C109.48 81.2918 109.789 80.6038 110.083 79.9111L35.3092 5.13738C34.6165 5.43149 33.9285 5.73992 33.2456 6.06269ZM37.324 4.32708L110.893 77.8962C111.171 77.1662 111.433 76.4317 111.679 75.6931L39.5272 3.54134C38.7886 3.78772 38.054 4.04964 37.324 4.32708ZM41.6811 2.87006L112.35 73.5392C112.577 72.7565 112.787 71.9699 112.98 71.1799L44.0403 2.24035C43.2504 2.43315 42.4638 2.64305 41.6811 2.87006ZM46.3519 1.72677L113.494 68.8684C113.663 68.0248 113.813 67.1782 113.943 66.3292L48.8911 1.27702C48.0421 1.40772 47.1954 1.55764 46.3519 1.72677ZM51.3879 0.948694L114.272 63.8324C114.372 62.9156 114.45 61.9969 114.505 61.0772L54.1431 0.714997C53.2233 0.770705 52.3046 0.848606 51.3879 0.948694ZM56.8682 0.614909L114.605 58.3521C114.618 57.3421 114.605 56.3318 114.565 55.3223L59.8979 0.655754C58.8885 0.615457 57.8782 0.601844 56.8682 0.614909ZM62.9242 0.856849L114.363 52.2961C114.257 51.1563 114.117 50.0192 113.943 48.8863L66.334 1.27774C65.2011 1.10323 64.0639 0.962939 62.9242 0.856849ZM69.8039 1.92249L113.298 45.4164C113.004 44.0668 112.66 42.7259 112.267 41.3965L73.8238 2.95336C72.4944 2.56028 71.1534 2.21667 69.8039 1.92249ZM78.1008 4.40525L110.815 37.1195C110.112 35.2907 109.311 33.4908 108.412 31.728L83.4923 6.80786C81.7295 5.90928 79.9296 5.10841 78.1008 4.40525ZM90.6891 11.1795L104.041 24.5312C102.231 21.9978 100.189 19.5792 97.9153 17.305C95.6411 15.0308 93.2225 12.989 90.6891 11.1795Z" fill="url(#paint0_linear)"/>
<defs>
<linearGradient id="paint0_linear" x1="17.3051" y1="17.305" x2="99.3295" y2="99.3294" gradientUnits="userSpaceOnUse">
<stop stop-color="white"/>
<stop offset="1" stop-color="white" stop-opacity="0"/>
</linearGradient>
</defs>
</svg>
