<svg width="103" height="103" viewBox="0 0 103 103" fill="none" xmlns="http://www.w3.org/2000/svg">
<path opacity="0.3" fill-rule="evenodd" clip-rule="evenodd" d="M12.1722 84.4C13.1409 85.556 14.1686 86.6794 15.2553 87.7661C16.342 88.8528 17.4653 89.8805 18.6214 90.8492L12.1722 84.4ZM26.7211 96.4077L6.61368 76.3002C5.68021 74.6115 4.84924 72.8813 4.12077 71.1187L31.9027 98.9006C30.1401 98.1721 28.4098 97.3412 26.7211 96.4077ZM35.9057 100.362C37.1351 100.754 38.3764 101.098 39.6266 101.395L1.62674 63.3948C1.92333 64.645 2.26743 65.8863 2.65902 67.1157L35.9057 100.362ZM0.975693 60.2024L42.8189 102.046C43.8568 102.223 44.899 102.369 45.9441 102.482L0.539109 57.0773C0.65258 58.1223 0.798108 59.1646 0.975693 60.2024ZM0.313911 54.3108L48.7106 102.707C49.6314 102.758 50.5533 102.783 51.4752 102.783L0.237883 51.5462C0.238516 52.4681 0.263859 53.39 0.313911 54.3108ZM0.29597 49.063L53.9584 102.725C54.7955 102.686 55.6318 102.625 56.4665 102.545L0.476484 46.5549C0.395904 47.3896 0.335732 48.2259 0.29597 49.063ZM0.74673 44.2838L58.7375 102.275C59.5091 102.165 60.2787 102.039 61.0456 101.894L1.12723 41.9757C0.982809 42.7427 0.855975 43.5122 0.74673 44.2838ZM1.56836 39.8756L63.1458 101.453C63.8631 101.287 64.5775 101.105 65.2884 100.907L2.11433 37.733C1.91674 38.4439 1.73474 39.1583 1.56836 39.8756ZM2.7001 35.7774L67.2439 100.321C67.9143 100.106 68.581 99.8762 69.2438 99.6325L3.38892 33.7776C3.14517 34.4404 2.91557 35.1071 2.7001 35.7774ZM4.10167 31.9491L71.0723 98.9197C71.7007 98.6607 72.325 98.3887 72.9448 98.1036L4.91772 30.0765C4.63269 30.6963 4.36067 31.3206 4.10167 31.9491ZM5.74511 28.3626L74.6588 97.2763C75.2489 96.9776 75.8344 96.6669 76.415 96.344L6.67739 26.6063C6.35449 27.1869 6.04373 27.7725 5.74511 28.3626ZM7.61059 24.9982L78.0231 95.4108C78.5776 95.0754 79.127 94.7285 79.6711 94.3702L8.6512 23.3502C8.29289 23.8944 7.94602 24.4438 7.61059 24.9982ZM9.68388 21.8416L81.1797 93.3375C81.7003 92.9673 82.2155 92.5862 82.7251 92.1942L10.8271 20.2963C10.4352 20.8058 10.0541 21.3211 9.68388 21.8416ZM11.9548 18.8826L84.1387 91.0666C84.6268 90.6631 85.1091 90.2491 85.5854 89.8247L13.1967 17.4359C12.7723 17.9123 12.3583 18.3946 11.9548 18.8826ZM14.4161 16.1141L86.9073 88.6052C87.1959 88.3295 87.4822 88.0498 87.7659 87.7661C87.9313 87.6007 88.0953 87.4344 88.258 87.2674L15.754 14.7634C15.5869 14.926 15.4207 15.09 15.2553 15.2554C14.9716 15.5392 14.6918 15.8254 14.4161 16.1141ZM17.0636 13.5317L89.4897 85.9578C89.9184 85.4859 90.3367 85.0079 90.7447 84.5242L18.4972 12.2767C18.0134 12.6846 17.5355 13.103 17.0636 13.5317ZM19.8983 11.1365L91.8849 83.1231C92.2813 82.6181 92.6669 82.1074 93.0417 81.5913L21.43 9.97968C20.9139 10.3545 20.4032 10.7401 19.8983 11.1365ZM22.9256 8.93394L94.0874 80.0958C94.4504 79.5564 94.802 79.0117 95.1422 78.4619L24.5594 7.87914C24.0097 8.21937 23.465 8.57098 22.9256 8.93394ZM26.1538 6.93216L96.0892 76.8676C96.417 76.2921 96.7328 75.7115 97.0365 75.1264L27.895 5.98483C27.3098 6.28856 26.7293 6.60435 26.1538 6.93216ZM29.5942 5.14268L97.8787 73.4272C98.169 72.8129 98.4465 72.194 98.711 71.5709L31.4504 4.31035C30.8274 4.5749 30.2085 4.85235 29.5942 5.14268ZM33.2628 3.58147L99.4399 69.7585C99.6895 69.1019 99.9251 68.4411 100.147 67.7767L35.2446 2.87468C34.5802 3.0963 33.9195 3.3319 33.2628 3.58147ZM37.1821 2.27085L100.751 65.8393C100.955 65.1352 101.144 64.4276 101.317 63.7171L39.3043 1.70442C38.5937 1.87784 37.8861 2.06666 37.1821 2.27085ZM41.3836 1.24244L101.779 61.6378C101.931 60.879 102.066 60.1174 102.183 59.3537L43.6676 0.837878C42.9039 0.955451 42.1424 1.0903 41.3836 1.24244ZM45.9136 0.542546L102.479 57.1078C102.569 56.2831 102.639 55.4567 102.689 54.6294L48.392 0.332333C47.5646 0.382445 46.7382 0.452513 45.9136 0.542546ZM50.8432 0.242302L102.779 52.1781C102.791 51.2696 102.779 50.3608 102.742 49.4528L53.5686 0.279048C52.6606 0.242797 51.7518 0.230549 50.8432 0.242302ZM56.2908 0.459939L102.561 46.7306C102.466 45.7054 102.34 44.6825 102.183 43.6634L59.358 0.838546C58.3389 0.68157 57.316 0.555369 56.2908 0.459939ZM62.4792 1.41852L101.603 40.5421C101.338 39.3282 101.029 38.122 100.676 36.9262L66.0952 2.34582C64.8993 1.99223 63.6932 1.68313 62.4792 1.41852ZM69.9425 3.65183L99.3695 33.0789C98.737 31.4338 98.0166 29.8148 97.2083 28.2291L74.7923 5.81304C73.2065 5.00475 71.5875 4.28434 69.9425 3.65183ZM81.266 9.74548L93.2759 21.7554C91.6482 19.4766 89.8116 17.3011 87.7659 15.2554C85.7203 13.2098 83.5448 11.3731 81.266 9.74548Z" fill="url(#paint0_linear)"/>
<defs>
<linearGradient id="paint0_linear" x1="15.2553" y1="15.2554" x2="89.0381" y2="89.0382" gradientUnits="userSpaceOnUse">
<stop stop-color="white"/>
<stop offset="1" stop-color="white" stop-opacity="0"/>
</linearGradient>
</defs>
</svg>
