<svg width="18" height="18" viewBox="0 0 18 18" fill="none" xmlns="http://www.w3.org/2000/svg">
<path d="M1 14.3333V9C1 6.87827 1.84285 4.84344 3.34315 3.34315C4.84344 1.84285 6.87827 1 9 1C11.1217 1 13.1566 1.84285 14.6569 3.34315C16.1571 4.84344 17 6.87827 17 9V14.3333" stroke="#6C757D" stroke-width="2" stroke-linecap="round" stroke-linejoin="round"/>
<path d="M17 15.2223C17 15.6938 16.8127 16.146 16.4793 16.4794C16.1459 16.8128 15.6937 17.0001 15.2222 17.0001H14.3333C13.8618 17.0001 13.4097 16.8128 13.0763 16.4794C12.7429 16.146 12.5556 15.6938 12.5556 15.2223V12.5556C12.5556 12.0841 12.7429 11.6319 13.0763 11.2985C13.4097 10.9651 13.8618 10.7778 14.3333 10.7778H17V15.2223ZM1 15.2223C1 15.6938 1.1873 16.146 1.5207 16.4794C1.8541 16.8128 2.30628 17.0001 2.77778 17.0001H3.66667C4.13816 17.0001 4.59035 16.8128 4.92375 16.4794C5.25714 16.146 5.44444 15.6938 5.44444 15.2223V12.5556C5.44444 12.0841 5.25714 11.6319 4.92375 11.2985C4.59035 10.9651 4.13816 10.7778 3.66667 10.7778H1V15.2223Z" stroke="#6C757D" stroke-width="2" stroke-linecap="round" stroke-linejoin="round"/>
</svg>
