<svg width="35" height="35" viewBox="0 0 35 35" fill="none" xmlns="http://www.w3.org/2000/svg">
<path d="M26.25 11.6667C26.25 9.34602 25.3281 7.12042 23.6872 5.47948C22.0462 3.83854 19.8206 2.91666 17.5 2.91666C15.1794 2.91666 12.9538 3.83854 11.3128 5.47948C9.67187 7.12042 8.75 9.34602 8.75 11.6667C8.75 21.875 4.375 24.7917 4.375 24.7917H30.625C30.625 24.7917 26.25 21.875 26.25 11.6667Z" stroke="#656565" stroke-width="3" stroke-linecap="round" stroke-linejoin="round"/>
<path d="M20.0229 30.625C19.7666 31.067 19.3985 31.4339 18.9558 31.6889C18.513 31.9439 18.011 32.0782 17.5 32.0782C16.9891 32.0782 16.4871 31.9439 16.0443 31.6889C15.6015 31.4339 15.2335 31.067 14.9771 30.625" stroke="#656565" stroke-width="3" stroke-linecap="round" stroke-linejoin="round"/>
</svg>
