<svg width="19" height="18" viewBox="0 0 19 18" fill="none" xmlns="http://www.w3.org/2000/svg">
<path d="M15.7863 2.41452C15.3953 1.96607 14.9311 1.61034 14.4202 1.36763C13.9093 1.12492 13.3617 1 12.8087 1C12.2557 1 11.7081 1.12492 11.1972 1.36763C10.6863 1.61034 10.2221 1.96607 9.83118 2.41452L9.01981 3.34476L8.20845 2.41452C7.41876 1.50912 6.3477 1.00047 5.23091 1.00047C4.11411 1.00047 3.04305 1.50912 2.25336 2.41452C1.46367 3.31992 1.02002 4.5479 1.02002 5.82833C1.02002 7.10875 1.46367 8.33674 2.25336 9.24214L3.06472 10.1724L9.01981 17L14.9749 10.1724L15.7863 9.24214C16.1774 8.79391 16.4877 8.26171 16.6994 7.67596C16.9111 7.0902 17.02 6.46237 17.02 5.82833C17.02 5.19428 16.9111 4.56645 16.6994 3.9807C16.4877 3.39494 16.1774 2.86275 15.7863 2.41452Z" stroke="#656565" stroke-width="2" stroke-linecap="round" stroke-linejoin="round"/>
</svg>
