<svg width="18" height="18" viewBox="0 0 18 18" fill="none" xmlns="http://www.w3.org/2000/svg">
<path d="M15.2222 1H2.77778C1.79594 1 1 1.79594 1 2.77778V15.2222C1 16.2041 1.79594 17 2.77778 17H15.2222C16.2041 17 17 16.2041 17 15.2222V2.77778C17 1.79594 16.2041 1 15.2222 1Z" stroke="#656565" stroke-width="2" stroke-linecap="round" stroke-linejoin="round"/>
<path d="M5.88888 7.22233C6.62526 7.22233 7.22221 6.62538 7.22221 5.889C7.22221 5.15262 6.62526 4.55566 5.88888 4.55566C5.1525 4.55566 4.55554 5.15262 4.55554 5.889C4.55554 6.62538 5.1525 7.22233 5.88888 7.22233Z" stroke="#656565" stroke-width="2" stroke-linecap="round" stroke-linejoin="round"/>
<path d="M17 11.6666L12.5555 7.22217L2.77777 16.9999" stroke="#656565" stroke-width="2" stroke-linecap="round" stroke-linejoin="round"/>
</svg>
