<svg width="75" height="54" viewBox="0 0 75 54" fill="none" xmlns="http://www.w3.org/2000/svg">
<path d="M37.3531 34.0722C41.259 34.0722 44.4253 30.9059 44.4253 27C44.4253 23.0942 41.259 19.9279 37.3531 19.9279C33.4473 19.9279 30.281 23.0942 30.281 27C30.281 30.9059 33.4473 34.0722 37.3531 34.0722Z" stroke="white" stroke-width="4" stroke-linecap="round" stroke-linejoin="round"/>
<path d="M52.3461 12.0071C54.3187 13.9775 55.8836 16.3174 56.9513 18.8931C58.019 21.4687 58.5685 24.2295 58.5685 27.0177C58.5685 29.8058 58.019 32.5667 56.9513 35.1423C55.8836 37.7179 54.3187 40.0579 52.3461 42.0283M22.3602 41.9929C20.3876 40.0225 18.8227 37.6826 17.755 35.1069C16.6873 32.5313 16.1377 29.7705 16.1377 26.9823C16.1377 24.1942 16.6873 21.4333 17.755 18.8577C18.8227 16.2821 20.3876 13.9421 22.3602 11.9717M62.3531 2C68.9822 8.63111 72.7063 17.6236 72.7063 27C72.7063 36.3764 68.9822 45.3689 62.3531 52M12.3531 52C5.72402 45.3689 2 36.3764 2 27C2 17.6236 5.72402 8.63111 12.3531 2" stroke="white" stroke-width="4" stroke-linecap="round" stroke-linejoin="round"/>
</svg>
