<svg width="16" height="16" viewBox="0 0 16 16" fill="none" xmlns="http://www.w3.org/2000/svg">
<g clip-path="url(#clip0)">
<path d="M8 10C9.10457 10 10 9.10457 10 8C10 6.89543 9.10457 6 8 6C6.89543 6 6 6.89543 6 8C6 9.10457 6.89543 10 8 10Z" stroke="black" stroke-opacity="0.6" stroke-width="2" stroke-linecap="round" stroke-linejoin="round"/>
<path d="M12.9333 9.99999C12.8445 10.2011 12.8181 10.4241 12.8573 10.6404C12.8965 10.8566 12.9996 11.0562 13.1533 11.2133L13.1933 11.2533C13.3173 11.3772 13.4156 11.5242 13.4827 11.6861C13.5498 11.8479 13.5843 12.0214 13.5843 12.1967C13.5843 12.3719 13.5498 12.5454 13.4827 12.7072C13.4156 12.8691 13.3173 13.0162 13.1933 13.14C13.0695 13.264 12.9224 13.3623 12.7605 13.4294C12.5987 13.4965 12.4252 13.531 12.25 13.531C12.0747 13.531 11.9012 13.4965 11.7394 13.4294C11.5775 13.3623 11.4305 13.264 11.3066 13.14L11.2666 13.1C11.1095 12.9463 10.9099 12.8432 10.6937 12.804C10.4774 12.7648 10.2544 12.7912 10.0533 12.88C9.85611 12.9645 9.68795 13.1048 9.5695 13.2837C9.45105 13.4625 9.38748 13.6721 9.38663 13.8867V14C9.38663 14.3536 9.24615 14.6927 8.9961 14.9428C8.74605 15.1928 8.40691 15.3333 8.05329 15.3333C7.69967 15.3333 7.36053 15.1928 7.11048 14.9428C6.86043 14.6927 6.71996 14.3536 6.71996 14V13.94C6.7148 13.7193 6.64337 13.5053 6.51497 13.3258C6.38656 13.1463 6.20712 13.0095 5.99996 12.9333C5.79888 12.8446 5.57583 12.8181 5.35957 12.8573C5.1433 12.8965 4.94375 12.9996 4.78663 13.1533L4.74663 13.1933C4.62279 13.3173 4.47574 13.4156 4.31388 13.4827C4.15202 13.5498 3.97851 13.5844 3.80329 13.5844C3.62807 13.5844 3.45457 13.5498 3.29271 13.4827C3.13084 13.4156 2.98379 13.3173 2.85996 13.1933C2.73599 13.0695 2.63765 12.9224 2.57055 12.7606C2.50345 12.5987 2.46891 12.4252 2.46891 12.25C2.46891 12.0748 2.50345 11.9013 2.57055 11.7394C2.63765 11.5775 2.73599 11.4305 2.85996 11.3067L2.89996 11.2667C3.05365 11.1095 3.15675 10.91 3.19596 10.6937C3.23517 10.4775 3.2087 10.2544 3.11996 10.0533C3.03545 9.85614 2.89513 9.68798 2.71627 9.56953C2.53741 9.45108 2.32782 9.38751 2.11329 9.38666H1.99996C1.64634 9.38666 1.3072 9.24618 1.05715 8.99613C0.807102 8.74608 0.666626 8.40694 0.666626 8.05332C0.666626 7.6997 0.807102 7.36056 1.05715 7.11051C1.3072 6.86047 1.64634 6.71999 1.99996 6.71999H2.05996C2.28062 6.71483 2.49463 6.6434 2.67416 6.515C2.85369 6.38659 2.99044 6.20715 3.06663 5.99999C3.15537 5.79891 3.18184 5.57586 3.14263 5.3596C3.10342 5.14333 3.00032 4.94378 2.84663 4.78666L2.80663 4.74666C2.68266 4.62283 2.58431 4.47577 2.51721 4.31391C2.45011 4.15205 2.41558 3.97854 2.41558 3.80332C2.41558 3.6281 2.45011 3.4546 2.51721 3.29274C2.58431 3.13087 2.68266 2.98382 2.80663 2.85999C2.93046 2.73602 3.07751 2.63768 3.23937 2.57058C3.40124 2.50348 3.57474 2.46894 3.74996 2.46894C3.92518 2.46894 4.09868 2.50348 4.26055 2.57058C4.42241 2.63768 4.56946 2.73602 4.69329 2.85999L4.73329 2.89999C4.89041 3.05368 5.08997 3.15678 5.30623 3.19599C5.5225 3.23521 5.74555 3.20873 5.94663 3.11999H5.99996C6.19714 3.03548 6.3653 2.89516 6.48375 2.7163C6.6022 2.53744 6.66577 2.32785 6.66663 2.11332V1.99999C6.66663 1.64637 6.8071 1.30723 7.05715 1.05718C7.3072 0.807132 7.64634 0.666656 7.99996 0.666656C8.35358 0.666656 8.69272 0.807132 8.94277 1.05718C9.19282 1.30723 9.33329 1.64637 9.33329 1.99999V2.05999C9.33415 2.27451 9.39771 2.48411 9.51616 2.66297C9.63461 2.84183 9.80278 2.98215 9.99996 3.06666C10.201 3.1554 10.4241 3.18187 10.6404 3.14266C10.8566 3.10345 11.0562 3.00035 11.2133 2.84666L11.2533 2.80666C11.3771 2.68269 11.5242 2.58434 11.686 2.51724C11.8479 2.45014 12.0214 2.41561 12.1966 2.41561C12.3718 2.41561 12.5453 2.45014 12.7072 2.51724C12.8691 2.58434 13.0161 2.68269 13.14 2.80666C13.2639 2.93049 13.3623 3.07754 13.4294 3.2394C13.4965 3.40127 13.531 3.57477 13.531 3.74999C13.531 3.92521 13.4965 4.09871 13.4294 4.26058C13.3623 4.42244 13.2639 4.56949 13.14 4.69332L13.1 4.73332C12.9463 4.89044 12.8432 5.09 12.804 5.30626C12.7647 5.52253 12.7912 5.74558 12.88 5.94666V5.99999C12.9645 6.19717 13.1048 6.36533 13.2836 6.48378C13.4625 6.60224 13.6721 6.6658 13.8866 6.66666H14C14.3536 6.66666 14.6927 6.80713 14.9428 7.05718C15.1928 7.30723 15.3333 7.64637 15.3333 7.99999C15.3333 8.35361 15.1928 8.69275 14.9428 8.9428C14.6927 9.19285 14.3536 9.33332 14 9.33332H13.94C13.7254 9.33418 13.5158 9.39774 13.337 9.51619C13.1581 9.63464 13.0178 9.80281 12.9333 9.99999V9.99999Z" stroke="black" stroke-opacity="0.6" stroke-width="2" stroke-linecap="round" stroke-linejoin="round"/>
</g>
<defs>
<clipPath id="clip0">
<rect width="16" height="16" fill="white"/>
</clipPath>
</defs>
</svg>
