<svg width="66" height="54" viewBox="0 0 66 54" fill="none" xmlns="http://www.w3.org/2000/svg">
<path d="M46.4444 52V46.4444C46.4444 43.4976 45.2738 40.6714 43.1901 38.5877C41.1063 36.504 38.2802 35.3333 35.3333 35.3333H13.1111C10.1643 35.3333 7.33811 36.504 5.25437 38.5877C3.17063 40.6714 2 43.4976 2 46.4444V52" stroke="white" stroke-width="4" stroke-linecap="round" stroke-linejoin="round"/>
<path d="M24.2222 24.2222C30.3587 24.2222 35.3333 19.2476 35.3333 13.1111C35.3333 6.97461 30.3587 2 24.2222 2C18.0857 2 13.1111 6.97461 13.1111 13.1111C13.1111 19.2476 18.0857 24.2222 24.2222 24.2222Z" stroke="white" stroke-width="4" stroke-linecap="round" stroke-linejoin="round"/>
<path d="M63.1111 52V46.4445C63.1093 43.9826 62.2899 41.591 60.7816 39.6453C59.2733 37.6996 57.1615 36.3099 54.7778 35.6945" stroke="white" stroke-width="4" stroke-linecap="round" stroke-linejoin="round"/>
<path d="M43.6667 2.36113C46.0567 2.97308 48.1751 4.36308 49.6879 6.31199C51.2007 8.26091 52.0218 10.6579 52.0218 13.125C52.0218 15.5922 51.2007 17.9891 49.6879 19.938C48.1751 21.887 46.0567 23.277 43.6667 23.8889" stroke="white" stroke-width="4" stroke-linecap="round" stroke-linejoin="round"/>
</svg>
