<svg width="25" height="20" viewBox="0 0 25 20" fill="none" xmlns="http://www.w3.org/2000/svg">
<path d="M12.2511 9.99753V18.9975" stroke="#E2514C" stroke-width="2" stroke-linecap="round" stroke-linejoin="round"/>
<path d="M20.8285 16.3875C21.8256 15.8558 22.6134 15.0144 23.0673 13.9962C23.5213 12.9779 23.6156 11.8408 23.3355 10.7642C23.0554 9.68769 22.4167 8.73305 21.5203 8.05099C20.6239 7.36892 19.5208 6.99828 18.3851 6.99754H17.097C16.7876 5.82678 16.2108 4.73988 15.4101 3.81854C14.6094 2.89719 13.6056 2.16539 12.4741 1.67815C11.3426 1.19091 10.113 0.960901 8.87755 1.00542C7.64213 1.04995 6.4331 1.36784 5.34135 1.93521C4.24961 2.50257 3.30357 3.30465 2.57435 4.28112C1.84513 5.2576 1.35171 6.38308 1.13118 7.57294C0.910649 8.76279 0.968754 9.98607 1.30112 11.1508C1.63349 12.3155 2.23148 13.3914 3.05012 14.2975" stroke="#E2514C" stroke-width="2" stroke-linecap="round" stroke-linejoin="round"/>
<path d="M16.3405 13.9975L12.2511 9.99753L8.1618 13.9975" stroke="#E2514C" stroke-width="2" stroke-linecap="round" stroke-linejoin="round"/>
</svg>
