<svg width="154" height="35" viewBox="0 0 154 35" fill="none" xmlns="http://www.w3.org/2000/svg">
<path d="M0 7.21082H6.03779C9.90457 7.21082 13.0227 8.59386 13.0227 12.8639C13.0227 16.9945 9.86914 18.8218 6.14522 18.8218H3.97308V24.7837H0V7.21082ZM5.91068 15.6677C8.09576 15.6677 9.12896 14.6941 9.12896 12.8639C9.12896 11.0247 7.9529 10.3655 5.80269 10.3655H3.97308V15.6677H5.91068Z" fill="white"/>
<path d="M14.689 11.4071H17.9224L18.2082 13.7452H18.3066C19.2802 11.9589 20.7431 11.0837 22.107 11.0837C22.8713 11.0837 23.3157 11.1822 23.7026 11.3531L23.0423 14.7745C22.5665 14.6569 22.1734 14.5585 21.5991 14.5585C20.5901 14.5585 19.3662 15.2087 18.6525 17.0332V24.7848H14.689V11.4071Z" fill="white"/>
<path d="M23.7101 18.1007C23.7101 13.761 26.8064 11.0837 30.0196 11.0837C33.8301 11.0837 35.7171 13.8532 35.7171 17.5046C35.7171 18.2183 35.6282 18.9326 35.5523 19.256H27.5499C27.9054 21.1964 29.2339 22.0873 31.0191 22.0873C32.0314 22.0873 32.9415 21.7797 33.9122 21.2116L35.2227 23.6014C33.8521 24.5497 32.0624 25.1082 30.4769 25.1082C26.6635 25.1082 23.7101 22.5294 23.7101 18.1007ZM32.3312 16.635C32.3312 15.1642 31.6912 14.104 30.1085 14.104C28.8559 14.104 27.7749 14.9443 27.5055 16.635H32.3312Z" fill="white"/>
<path d="M36.9153 23.2399L38.696 20.7708C39.9081 21.6876 41.0279 22.1769 42.1472 22.1769C43.3283 22.1769 43.8373 21.727 43.8373 21.0262C43.8373 20.1448 42.5116 19.7449 41.1348 19.2055C39.4947 18.5717 37.5948 17.4834 37.5948 15.2724C37.5948 12.7819 39.6196 11.0845 42.7057 11.0845C44.7552 11.0845 46.2811 11.9124 47.42 12.7785L45.6461 15.1588C44.6945 14.467 43.7557 14.0165 42.8294 14.0165C41.8058 14.0165 41.3013 14.4175 41.3013 15.0851C41.3013 15.9378 42.5544 16.2662 43.9402 16.7691C45.6343 17.395 47.5438 18.3489 47.5438 20.7944C47.5438 23.2129 45.6315 25.1089 42.0487 25.1089C40.2872 25.1084 38.2697 24.344 36.9153 23.2399Z" fill="white"/>
<path d="M48.7274 23.2399L50.5109 20.7708C51.7224 21.6876 52.8422 22.1769 53.9615 22.1769C55.1426 22.1769 55.6516 21.727 55.6516 21.0262C55.6516 20.1448 54.3259 19.7449 52.9491 19.2055C51.3096 18.5717 49.4097 17.4834 49.4097 15.2724C49.4097 12.7819 51.4344 11.0845 54.5205 11.0845C56.5701 11.0845 58.096 11.9124 59.2349 12.7785L57.461 15.1588C56.5093 14.467 55.5701 14.0165 54.6443 14.0165C53.6201 14.0165 53.1161 14.4175 53.1161 15.0851C53.1161 15.9378 54.3687 16.2662 55.7551 16.7691C57.4486 17.395 59.3581 18.3489 59.3581 20.7944C59.3581 23.2129 57.4486 25.1089 53.8636 25.1089C52.0998 25.1084 50.0823 24.344 48.7274 23.2399Z" fill="white"/>
<path d="M67.5779 7.21082H73.6157C77.4824 7.21082 80.6012 8.59386 80.6012 12.8639C80.6012 16.9945 77.4476 18.8218 73.7237 18.8218H71.551V24.7837H67.5779V7.21082ZM73.4886 15.6677C75.6736 15.6677 76.7074 14.6941 76.7074 12.8639C76.7074 11.0247 75.5308 10.3655 73.3811 10.3655H71.551V15.6677H73.4886Z" fill="white"/>
<path d="M82.2661 20.6279V5.89478H86.2296V20.7893C86.2296 21.6397 86.6233 21.9097 86.9467 21.9097C87.1104 21.9141 87.2738 21.8951 87.4321 21.8534L87.9051 24.7781C87.467 24.9654 86.8163 25.1083 85.9152 25.1083C83.1958 25.1083 82.2661 23.3344 82.2661 20.6279Z" fill="white"/>
<path d="M88.1167 21.0744C88.1167 18.256 90.3592 16.7301 95.65 16.1721C95.5707 15.0017 94.9869 14.2379 93.5347 14.2379C92.4098 14.2379 91.2928 14.7104 89.9953 15.4466L88.5892 12.8442C90.2866 11.807 92.1995 11.0837 94.3024 11.0837C97.7226 11.0837 99.6169 13.0377 99.6169 17.1367V24.7859H96.3829L96.0972 23.4158H95.9987C94.8739 24.4051 93.6106 25.1093 92.1072 25.1093C89.6645 25.1082 88.1167 23.3281 88.1167 21.0744ZM95.65 20.8983V18.5603C92.8316 18.941 91.9121 19.7464 91.9121 20.7577C91.9121 21.6199 92.5049 22.0418 93.4469 22.0418C94.344 22.0429 94.9464 21.5974 95.65 20.8983Z" fill="white"/>
<path d="M100.595 29.7456L101.3 26.7247C101.547 26.7877 101.912 26.8935 102.2 26.8935C103.507 26.8935 104.195 26.1741 104.541 25.1369L104.741 24.4395L99.5801 11.4072H103.562L105.475 17.1638C105.861 18.3753 106.179 19.6442 106.531 20.9541H106.639C106.937 19.6886 107.235 18.4197 107.568 17.1638L109.191 11.4072H112.987L108.343 24.93C107.074 28.2804 105.643 30.015 102.502 30.015C101.856 30.026 101.213 29.9351 100.595 29.7456Z" fill="white"/>
<path d="M153.922 17.5637C153.922 22.4845 152.697 27.2759 150.378 31.42C149.865 32.3397 149.296 33.2277 148.676 34.0792C148.351 34.5257 147.873 34.8362 147.333 34.9511C146.793 35.0659 146.23 34.9769 145.751 34.7012L145.721 34.6838C145.45 34.5263 145.214 34.3134 145.03 34.0589C144.846 33.8044 144.718 33.514 144.654 33.2066C144.59 32.8992 144.591 32.5817 144.658 32.2749C144.724 31.968 144.855 31.6786 145.041 31.4256C145.553 30.7203 146.023 29.985 146.447 29.2236C148.39 25.7489 149.417 21.7173 149.417 17.5637C149.417 13.5141 148.438 9.5686 146.584 6.1529C146.098 5.25442 145.548 4.39137 144.94 3.57018C144.754 3.31741 144.624 3.0282 144.557 2.72146C144.49 2.41473 144.489 2.0974 144.554 1.79024C144.619 1.48308 144.747 1.19302 144.932 0.93905C145.116 0.685077 145.352 0.472917 145.624 0.31646L145.654 0.299024C146.129 0.0247624 146.689 -0.0649602 147.226 0.0469666C147.763 0.158893 148.241 0.464639 148.567 0.905897C149.296 1.89246 149.955 2.92875 150.539 4.00719C152.754 8.07982 153.922 12.7672 153.922 17.5637Z" fill="#E2514C"/>
<path d="M144.506 17.6243C144.506 20.6722 143.745 23.6424 142.307 26.2145C141.812 27.1015 141.235 27.9401 140.583 28.719C140.245 29.1193 139.777 29.3879 139.261 29.4778C138.746 29.5677 138.215 29.4731 137.762 29.2106L137.731 29.1932C137.449 29.0299 137.206 28.8067 137.019 28.5395C136.832 28.2722 136.706 27.9673 136.65 27.6461C136.593 27.3249 136.608 26.9953 136.692 26.6803C136.777 26.3654 136.929 26.0728 137.139 25.823C137.608 25.2609 138.024 24.6559 138.38 24.0159C139.444 22.1137 140.006 19.9028 140.006 17.6221C140.006 15.3988 139.47 13.235 138.455 11.3649C138.049 10.6137 137.562 9.90926 137.003 9.26422C136.075 8.19896 136.335 6.55664 137.558 5.85021L137.59 5.83165C138.038 5.57384 138.561 5.4795 139.071 5.56475C139.581 5.64999 140.045 5.90953 140.385 6.29904C142.991 9.27997 144.506 13.3189 144.506 17.6243Z" fill="#E2514C"/>
<path d="M130.928 24.9339C130.37 24.9343 129.822 24.7903 129.336 24.516L129.307 24.4991L122.942 20.8241C122.349 20.4817 121.857 19.9892 121.514 19.396C121.172 18.8029 120.991 18.1301 120.991 17.4453C120.991 16.7604 121.172 16.0876 121.514 15.4945C121.857 14.9014 122.349 14.4089 122.942 14.0664L129.31 10.3898C129.415 10.3296 129.523 10.2739 129.631 10.2238C130.469 9.83631 131.374 9.83012 132.178 10.1996C133.326 10.7295 134.155 11.9561 134.715 13.9506C135.558 16.9574 135.247 20.2094 133.842 23.1076C133.576 23.655 133.162 24.1166 132.647 24.4396C132.131 24.7626 131.535 24.9339 130.927 24.9339H130.928ZM124.966 17.4456L130.599 20.6976C131.31 18.8635 131.432 16.8297 130.922 15.0113C130.845 14.7242 130.749 14.4424 130.635 14.1677L124.966 17.4456Z" fill="#E2514C"/>
</svg>
