<svg width="29" height="30" viewBox="0 0 29 30" fill="none" xmlns="http://www.w3.org/2000/svg">
<path d="M16.6846 11.0001C15.8889 11.0001 15.1259 11.3162 14.5632 11.8788C14.0006 12.4414 13.6846 13.2045 13.6846 14.0001V17.0001C13.6846 17.7958 14.0006 18.5589 14.5632 19.1215C15.1259 19.6841 15.8889 20.0001 16.6846 20.0001C17.4802 20.0001 18.2433 19.6841 18.8059 19.1215C19.3685 18.5589 19.6846 17.7958 19.6846 17.0001V14.0001C19.6846 13.2045 19.3685 12.4414 18.8059 11.8788C18.2433 11.3162 17.4802 11.0001 16.6846 11.0001ZM17.6846 17.0001C17.6846 17.2654 17.5792 17.5197 17.3917 17.7073C17.2041 17.8948 16.9498 18.0001 16.6846 18.0001C16.4194 18.0001 16.165 17.8948 15.9775 17.7073C15.7899 17.5197 15.6846 17.2654 15.6846 17.0001V14.0001C15.6846 13.7349 15.7899 13.4806 15.9775 13.293C16.165 13.1055 16.4194 13.0001 16.6846 13.0001C16.9498 13.0001 17.2041 13.1055 17.3917 13.293C17.5792 13.4806 17.6846 13.7349 17.6846 14.0001V17.0001Z" fill="#4D4D4D"/>
<path d="M20.7867 1.78663C20.8554 2.04281 20.8194 2.31576 20.6868 2.54545C20.5542 2.77513 20.3358 2.94273 20.0796 3.01137L17.7865 3.62581C19.575 4.22526 21.197 5.23791 22.5209 6.58158C23.8448 7.92524 24.8333 9.56209 25.4062 11.3593C25.9791 13.1565 26.1202 15.0635 25.8181 16.9254C25.516 18.7874 24.7793 20.5519 23.6676 22.0758C22.5559 23.5997 21.1007 24.8401 19.4199 25.6963C17.7391 26.5525 15.8801 27.0004 13.9938 27.0037C12.1075 27.007 10.247 26.5655 8.56324 25.7152C6.87949 24.8648 5.41992 23.6295 4.30297 22.1094C4.22964 22.0088 4.17544 21.8956 4.14307 21.7754C4.08233 21.5501 4.10229 21.3106 4.19951 21.0985C4.29673 20.8864 4.46508 20.7149 4.67541 20.6138C4.88574 20.5127 5.1248 20.4884 5.35119 20.545C5.57758 20.6016 5.77704 20.7356 5.91503 20.9238C6.85844 22.2156 8.09799 23.2623 9.52962 23.9759C10.9613 24.6895 12.5432 25.0493 14.1426 25.025C15.7421 25.0007 17.3124 24.593 18.7217 23.8362C20.131 23.0795 21.3382 21.9957 22.2419 20.6758C23.1456 19.3559 23.7196 17.8385 23.9155 16.2509C24.1114 14.6633 23.9236 13.0519 23.3679 11.5519C22.8121 10.0519 21.9046 8.70712 20.7216 7.63044C19.5386 6.55375 18.1145 5.77659 16.5689 5.36417L17.2512 7.91035C17.3198 8.16653 17.2839 8.43949 17.1513 8.66917C17.0187 8.89886 16.8002 9.06646 16.5441 9.1351C16.2879 9.20374 16.0149 9.16781 15.7853 9.0352C15.5556 8.90259 15.388 8.68417 15.3193 8.42799L14.5429 5.53021C14.3369 4.76168 14.4447 3.94281 14.8426 3.25376C15.2404 2.5647 15.8956 2.06191 16.6642 1.85598L19.562 1.07952C19.8181 1.01088 20.0911 1.04681 20.3208 1.17942C20.5505 1.31203 20.7181 1.53045 20.7867 1.78663V1.78663Z" fill="#4D4D4D"/>
<path d="M11.068 11.0761C10.8852 11.0004 10.6841 10.9806 10.4901 11.0193C10.296 11.0579 10.1178 11.1532 9.97798 11.2931L6.97798 14.2931C6.79582 14.4817 6.69503 14.7343 6.6973 14.9965C6.69958 15.2587 6.80475 15.5095 6.99016 15.6949C7.17557 15.8803 7.42638 15.9855 7.68858 15.9878C7.95077 15.9901 8.20337 15.8893 8.39198 15.7071L9.68498 14.4141V19.0001C9.68498 19.2653 9.79033 19.5197 9.97787 19.7072C10.1654 19.8948 10.4198 20.0001 10.685 20.0001C10.9502 20.0001 11.2045 19.8948 11.3921 19.7072C11.5796 19.5197 11.685 19.2653 11.685 19.0001V12.0001C11.685 11.8024 11.6264 11.609 11.5166 11.4445C11.4068 11.2801 11.2507 11.1519 11.068 11.0761Z" fill="#4D4D4D"/>
</svg>
