<svg width="31" height="30" viewBox="0 0 31 30" fill="none" xmlns="http://www.w3.org/2000/svg">
<g clip-path="url(#clip0)">
<path d="M19.3545 11.0002C18.5588 11.0002 17.7958 11.3162 17.2332 11.8788C16.6706 12.4414 16.3545 13.2045 16.3545 14.0002V17.0002C16.3545 17.7958 16.6706 18.5589 17.2332 19.1215C17.7958 19.6841 18.5588 20.0002 19.3545 20.0002C20.1501 20.0002 20.9132 19.6841 21.4758 19.1215C22.0384 18.5589 22.3545 17.7958 22.3545 17.0002V14.0002C22.3545 13.2045 22.0384 12.4414 21.4758 11.8788C20.9132 11.3162 20.1501 11.0002 19.3545 11.0002ZM20.3545 17.0002C20.3545 17.2654 20.2491 17.5197 20.0616 17.7073C19.8741 17.8948 19.6197 18.0002 19.3545 18.0002C19.0893 18.0002 18.8349 17.8948 18.6474 17.7073C18.4598 17.5197 18.3545 17.2654 18.3545 17.0002V14.0002C18.3545 13.7349 18.4598 13.4806 18.6474 13.293C18.8349 13.1055 19.0893 13.0002 19.3545 13.0002C19.6197 13.0002 19.8741 13.1055 20.0616 13.293C20.2491 13.4806 20.3545 13.7349 20.3545 14.0002V17.0002Z" fill="#4D4D4D"/>
<path d="M8.55509 1.78664C8.48644 2.04282 8.52238 2.31578 8.65499 2.54546C8.7876 2.77515 9.00601 2.94275 9.26219 3.01139L11.5553 3.62583C9.76678 4.22528 8.14477 5.23792 6.82087 6.58159C5.49698 7.92526 4.50849 9.5621 3.93561 11.3593C3.36274 13.1565 3.22161 15.0635 3.52368 16.9254C3.82576 18.7874 4.56252 20.5519 5.6742 22.0758C6.78587 23.5998 8.24115 24.8401 9.92194 25.6963C11.6027 26.5525 13.4617 27.0005 15.348 27.0037C17.2343 27.007 19.0948 26.5655 20.7786 25.7152C22.4623 24.8648 23.9219 23.6295 25.0388 22.1094C25.1122 22.0088 25.1664 21.8956 25.1987 21.7754C25.2595 21.5501 25.2395 21.3107 25.1423 21.0985C25.0451 20.8864 24.8767 20.7149 24.6664 20.6138C24.4561 20.5127 24.217 20.4884 23.9906 20.545C23.7642 20.6016 23.5648 20.7356 23.4268 20.9238C22.4834 22.2156 21.2438 23.2623 19.8122 23.9759C18.3805 24.6895 16.7986 25.0493 15.1992 25.025C13.5997 25.0007 12.0294 24.593 10.6201 23.8363C9.21083 23.0795 8.00364 21.9957 7.0999 20.6758C6.19616 19.3559 5.62224 17.8385 5.42632 16.2509C5.2304 14.6633 5.4182 13.0519 5.97395 11.5519C6.52969 10.0519 7.43717 8.70714 8.62021 7.63045C9.80325 6.55377 11.2273 5.7766 12.7729 5.36419L12.0906 7.91037C12.022 8.16655 12.0579 8.4395 12.1905 8.66919C12.3231 8.89887 12.5415 9.06647 12.7977 9.13511C13.0539 9.20376 13.3269 9.16782 13.5565 9.03521C13.7862 8.90261 13.9538 8.68419 14.0225 8.42801L14.7989 5.53023C15.0049 4.76169 14.8971 3.94282 14.4992 3.25377C14.1014 2.56472 13.4461 2.06192 12.6776 1.85599L9.77983 1.07954C9.52365 1.01089 9.2507 1.04683 9.02101 1.17944C8.79133 1.31205 8.62373 1.53046 8.55509 1.78664V1.78664Z" fill="#4D4D4D"/>
<path d="M13.7379 11.0761C13.5551 11.0004 13.354 10.9806 13.16 11.0193C12.966 11.0579 12.7877 11.1532 12.6479 11.2931L9.6479 14.2931C9.46574 14.4817 9.36495 14.7343 9.36723 14.9965C9.3695 15.2587 9.47467 15.5095 9.66008 15.6949C9.84549 15.8803 10.0963 15.9855 10.3585 15.9878C10.6207 15.9901 10.8733 15.8893 11.0619 15.7071L12.3549 14.4141V19.0001C12.3549 19.2653 12.4603 19.5197 12.6478 19.7072C12.8353 19.8948 13.0897 20.0001 13.3549 20.0001C13.6201 20.0001 13.8745 19.8948 14.062 19.7072C14.2495 19.5197 14.3549 19.2653 14.3549 19.0001V12.0001C14.3549 11.8024 14.2964 11.609 14.1865 11.4445C14.0767 11.2801 13.9206 11.1519 13.7379 11.0761Z" fill="#4D4D4D"/>
</g>
<defs>
<clipPath id="clip0">
<rect width="24" height="24" fill="white" transform="translate(0.669922 23.4853) rotate(-75)"/>
</clipPath>
</defs>
</svg>
